<svg width="24" height="24" viewBox="0 0 24 24" fill="none" xmlns="http://www.w3.org/2000/svg">
<g id="icon">
<path id="Union" fill-rule="evenodd" clip-rule="evenodd" d="M18.7628 1.71001L18.0395 3.87991C18.0146 3.95456 17.9561 4.01314 17.8814 4.03802L15.7115 4.76132C15.4836 4.8373 15.4836 5.15969 15.7115 5.23566L17.8814 5.95896C17.9561 5.98385 18.0146 6.04243 18.0395 6.11708L18.7628 8.28698C18.8388 8.5149 19.1612 8.5149 19.2372 8.28698L19.9605 6.11708C19.9854 6.04243 20.0439 5.98385 20.1186 5.95896L22.2885 5.23566C22.5164 5.15969 22.5164 4.8373 22.2885 4.76132L20.1186 4.03802C20.0439 4.01314 19.9854 3.95456 19.9605 3.87991L19.2372 1.71001C19.1612 1.48208 18.8388 1.48208 18.7628 1.71001ZM15.3508 3.67979L15.3981 3.66404C14.3496 3.23621 13.2023 3.00045 12 3.00045C7.02944 3.00045 3 7.02988 3 12.0004C3 16.971 7.02944 21.0004 12 21.0004C16.9706 21.0004 21 16.971 21 12.0004C21 10.7991 20.7646 9.65275 20.3375 8.60496L20.3221 8.65106C19.8988 9.92093 18.1026 9.92092 17.6793 8.65106L17.0972 6.90468L15.3508 6.32255C14.081 5.89926 14.081 4.10308 15.3508 3.67979ZM9.53033 14.2201C9.23744 13.9272 8.76256 13.9272 8.46967 14.2201C8.17678 14.513 8.17678 14.9879 8.46967 15.2808C9.05142 15.8625 10.2309 16.7504 12 16.7504C13.7691 16.7504 14.9486 15.8625 15.5303 15.2808C15.8232 14.9879 15.8232 14.513 15.5303 14.2201C15.2374 13.9272 14.7626 13.9272 14.4697 14.2201C14.0514 14.6384 13.2309 15.2504 12 15.2504C10.7691 15.2504 9.94858 14.6384 9.53033 14.2201ZM7.73203 8.30045C7.98056 7.96908 8.45066 7.90192 8.78203 8.15045L9.11536 8.40045L10.4487 9.40045C10.6376 9.54209 10.7487 9.76438 10.7487 10.0004C10.7487 10.2365 10.6376 10.4588 10.4487 10.6004L9.11536 11.6004L8.78203 11.8504C8.45066 12.099 7.98056 12.0318 7.73203 11.7004C7.4835 11.3691 7.55066 10.899 7.88203 10.6504L8.21536 10.4004L8.7487 10.0004L8.21536 9.60045L7.88203 9.35045C7.55066 9.10192 7.4835 8.63182 7.73203 8.30045ZM15 9.00045C14.4477 9.00045 14 9.44816 14 10.0004C14 10.5527 14.4477 11.0004 15 11.0004C15.5523 11.0004 16 10.5527 16 10.0004C16 9.44816 15.5523 9.00045 15 9.00045Z" fill="#E9E9E9"/>
</g>
</svg>
