<svg width="24" height="25" viewBox="0 0 24 25" fill="none" xmlns="http://www.w3.org/2000/svg">
<path fill-rule="evenodd" clip-rule="evenodd" d="M10 5.42603H16.5253L12.4041 9.54724H10.7023C10.5367 9.54724 10.4023 9.68156 10.4023 9.84724V11.549L9.39854 12.5528V9.84724C9.39854 9.68156 9.26423 9.54724 9.09854 9.54724H8.48405C8.31837 9.54724 8.18405 9.68156 8.18405 9.84724V11.9228H5.71291V9.84724C5.71291 9.68156 5.57859 9.54724 5.41291 9.54724H4.79561C4.62992 9.54724 4.49561 9.68156 4.49561 9.84724V15.0048C4.49561 15.1705 4.62992 15.3048 4.79561 15.3048H5.41291C5.57859 15.3048 5.71291 15.1705 5.71291 15.0048V12.9264H8.18405V13.7672L2.52527 19.426H2V13.426C2 10.6258 2 9.22563 2.54497 8.15607C3.02433 7.21526 3.78924 6.45036 4.73005 5.97099C5.79961 5.42603 7.19974 5.42603 10 5.42603ZM11.5962 15.3048L7.47501 19.426H17V9.90104L15.1986 11.7024C15.2397 11.9265 15.2603 12.1658 15.2603 12.4204C15.2603 13.0202 15.1469 13.5356 14.9201 13.9666C14.6952 14.3977 14.3719 14.7285 13.9502 14.959C13.5304 15.1896 13.0281 15.3048 12.4434 15.3048H11.5962ZM12.6511 14.25L14.0176 12.8835C13.9878 13.1092 13.9344 13.3053 13.8575 13.4718C13.7338 13.7417 13.5482 13.9413 13.3008 14.0706C13.1165 14.1663 12.8999 14.2261 12.6511 14.25ZM20.8422 8.00491L18 9.42603V15.426L20.8422 16.8472L20.8422 16.8472C21.2256 17.0388 21.4173 17.1347 21.5731 17.1117C21.7091 17.0916 21.8309 17.0163 21.9097 16.9036C22 16.7745 22 16.5602 22 16.1316V8.72045C22 8.29184 22 8.07754 21.9097 7.94847C21.8309 7.83577 21.7091 7.76051 21.5731 7.74041C21.4173 7.71739 21.2256 7.81323 20.8422 8.00491Z" fill="#373C48" style="fill-opacity: 1"/>
<path fill-rule="evenodd" clip-rule="evenodd" d="M21.8183 3.24428C21.9354 3.36144 21.9354 3.55139 21.8183 3.66855L3.24252 22.2443C3.12537 22.3614 2.93542 22.3614 2.81826 22.2443L2.18186 21.6079C2.0647 21.4907 2.0647 21.3008 2.18186 21.1836L20.7576 2.60789C20.8748 2.49073 21.0647 2.49073 21.1819 2.60789L21.8183 3.24428Z" fill="#E63922" style="fill-opacity: 1"/>
</svg>
