<svg width="24" height="25" viewBox="0 0 24 25" fill="none" xmlns="http://www.w3.org/2000/svg">
<path fill-rule="evenodd" clip-rule="evenodd" d="M2 13.426C2 10.6258 2 9.22563 2.54497 8.15607C3.02433 7.21526 3.78924 6.45036 4.73005 5.97099C5.79961 5.42603 7.19974 5.42603 10 5.42603H17V19.426H2V13.426ZM18 9.42603L20.8422 8.00491C21.2256 7.81323 21.4173 7.71739 21.5731 7.74041C21.7091 7.76051 21.8309 7.83577 21.9097 7.94847C22 8.07754 22 8.29184 22 8.72045V16.1316C22 16.5602 22 16.7745 21.9097 16.9036C21.8309 17.0163 21.7091 17.0916 21.5731 17.1117C21.4173 17.1347 21.2256 17.0388 20.8422 16.8472L20.8422 16.8472L18 15.426V9.42603ZM4.74873 15.3048C4.58305 15.3048 4.44873 15.1705 4.44873 15.0048V9.84724C4.44873 9.68156 4.58305 9.54724 4.74873 9.54724H5.36603C5.53172 9.54724 5.66603 9.68156 5.66603 9.84724V11.9228H8.13718V9.84724C8.13718 9.68156 8.27149 9.54724 8.43718 9.54724H9.05167C9.21735 9.54724 9.35167 9.68156 9.35167 9.84724V15.0048C9.35167 15.1705 9.21735 15.3048 9.05167 15.3048H8.43718C8.27149 15.3048 8.13718 15.1705 8.13718 15.0048V12.9264H5.66603V15.0048C5.66603 15.1705 5.53172 15.3048 5.36603 15.3048H4.74873ZM12.3963 15.3048H10.6553C10.4896 15.3048 10.3553 15.1705 10.3553 15.0048V9.84724C10.3553 9.68156 10.4896 9.54724 10.6553 9.54724H12.4132C12.9923 9.54724 13.4909 9.66251 13.9088 9.89303C14.3268 10.1217 14.6482 10.4506 14.8731 10.8798C15.0999 11.309 15.2133 11.8225 15.2133 12.4204C15.2133 13.0202 15.0999 13.5356 14.8731 13.9666C14.6482 14.3977 14.3249 14.7285 13.9032 14.959C13.4834 15.1896 12.9811 15.3048 12.3963 15.3048ZM11.5726 14.2618H12.3457C12.7056 14.2618 13.0083 14.1981 13.2538 14.0706C13.5012 13.9413 13.6867 13.7417 13.8104 13.4718C13.936 13.2001 13.9988 12.8496 13.9988 12.4204C13.9988 11.995 13.936 11.6473 13.8104 11.3774C13.6867 11.1075 13.5021 10.9089 13.2566 10.7814C13.0111 10.654 12.7084 10.5902 12.3485 10.5902H11.5726V14.2618Z" fill="#373C48" style="fill-opacity: 1"/>
</svg>
