<svg width="24" height="25" viewBox="0 0 24 25" fill="none" xmlns="http://www.w3.org/2000/svg">
<path fill-rule="evenodd" clip-rule="evenodd" d="M2 13.426C2 10.6258 2 9.22563 2.54497 8.15607C3.02433 7.21526 3.78924 6.45036 4.73005 5.97099C5.79961 5.42603 7.19974 5.42603 10 5.42603H17V19.426H2V13.426ZM8 8.72603C8 8.56034 8.13431 8.42603 8.3 8.42603H13.7C13.8657 8.42603 14 8.56034 14 8.72603V9.62603C14 9.79171 13.8657 9.92603 13.7 9.92603H8.3C8.13431 9.92603 8 9.79171 8 9.62603V8.72603ZM20.8422 8.00491L18 9.42602V15.426L20.8422 16.8472C21.2256 17.0388 21.4173 17.1347 21.5731 17.1117C21.7091 17.0916 21.8309 17.0163 21.9097 16.9036C22 16.7745 22 16.5602 22 16.1316V8.72045C22 8.29184 22 8.07754 21.9097 7.94847C21.8309 7.83577 21.7091 7.76051 21.5731 7.74041C21.4173 7.71739 21.2256 7.81323 20.8422 8.00491Z" fill="#373C48" style="fill-opacity: 1"/>
<path d="M24 18.5691C24 21.0544 21.9853 23.0691 19.5 23.0691C17.0147 23.0691 15 21.0544 15 18.5691C15 16.0838 17.0147 14.0691 19.5 14.0691C21.9853 14.0691 24 16.0838 24 18.5691Z" fill="white" style="fill-opacity: 1"/>
<path fill-rule="evenodd" clip-rule="evenodd" d="M23 18.5691C23 20.5021 21.433 22.0691 19.5 22.0691C17.567 22.0691 16 20.5021 16 18.5691C16 16.6361 17.567 15.0691 19.5 15.0691C21.433 15.0691 23 16.6361 23 18.5691ZM18.8906 20.4503C18.8906 20.119 19.1593 19.8503 19.4906 19.8503C19.822 19.8503 20.0906 20.119 20.0906 20.4503C20.0906 20.7817 19.822 21.0503 19.4906 21.0503C19.1593 21.0503 18.8906 20.7817 18.8906 20.4503ZM19.3 16.0691C19.1343 16.0691 19 16.2034 19 16.3691V18.7691C19 18.9348 19.1343 19.0691 19.3 19.0691H19.7C19.8657 19.0691 20 18.9348 20 18.7691V16.3691C20 16.2034 19.8657 16.0691 19.7 16.0691H19.3Z" fill="#D94E36" style="fill-opacity: 1"/>
</svg>
