<svg width="44" height="44" viewBox="0 0 44 44" fill="none" xmlns="http://www.w3.org/2000/svg">
  <rect width="44" height="44" rx="8" fill="#D94E36"/>
  <path d="M13.8855 20.3281C16.4234 19.4322 19.154 18.9448 21.9985 18.9448C24.8435 18.9448 27.5747 19.4324 30.1129 20.3286C31.9827 21.0794 32.9539 23.1847 32.2906 25.1111C32.2078 25.3515 32.1034 25.5783 31.9802 25.79C31.7945 26.1092 31.4141 26.2404 31.0508 26.1743L25.6722 25.1964C25.3091 25.1304 24.9994 24.874 24.9372 24.5103C24.833 23.9011 24.876 23.2578 25.0914 22.6322C25.1751 22.389 25.1271 22.1194 24.8984 22.0017C24.4681 21.7804 23.5932 21.4829 21.9994 21.4829C20.4084 21.4829 19.5337 21.7792 19.1025 22.0004C18.8722 22.1184 18.8239 22.3897 18.9081 22.6344C19.1232 23.2589 19.1664 23.901 19.063 24.5093C19.001 24.8734 18.6912 25.1301 18.3278 25.1962L12.9461 26.1747C12.5824 26.2408 12.2018 26.1094 12.0162 25.7897C11.8938 25.5788 11.7899 25.353 11.7075 25.1137C11.0441 23.1869 12.016 21.0924 13.8861 20.3415L13.8855 20.3281Z" fill="white"/>
  </svg>
  