<svg width="24" height="24" viewBox="0 0 24 24" fill="none" xmlns="http://www.w3.org/2000/svg">
<path fill-rule="evenodd" clip-rule="evenodd" d="M9 17L15.4319 17L15.5051 17H18V14.4938L18 14.4319L18 14V10.3572C18 9.27343 18 8.39927 17.9422 7.69138C17.9266 7.50045 17.9064 7.31559 17.8798 7.13609C18.2382 7.20062 18.5407 7.29575 18.816 7.43598C19.5686 7.81947 20.1805 8.43139 20.564 9.18404C21 10.0397 21 11.1598 21 13.4V19.5052C21 19.9908 21 20.2336 20.8988 20.3674C20.8106 20.484 20.6757 20.5561 20.5298 20.5649C20.3623 20.5749 20.1603 20.4402 19.7562 20.1708L18.4031 19.2687L18.4031 19.2687C18.2533 19.1688 18.1783 19.1189 18.0973 19.0835C18.0254 19.0521 17.95 19.0293 17.8727 19.0155C17.7857 19 17.6956 19 17.5156 19H9V17Z" fill="black"/>
<path fill-rule="evenodd" clip-rule="evenodd" d="M3 18.0686V4H10.6C12.8402 4 13.9603 4 14.816 4.43597C15.5686 4.81947 16.1805 5.43139 16.564 6.18404C17 7.03969 17 8.15979 17 10.4V16H7.66274C7.41815 16 7.29586 16 7.18077 16.0276C7.07873 16.0521 6.98119 16.0925 6.89172 16.1474C6.7908 16.2092 6.70432 16.2957 6.53137 16.4686L4.36568 18.6343C3.93731 19.0627 3.72312 19.2769 3.53923 19.2914C3.37967 19.3039 3.22374 19.2393 3.1198 19.1176C3 18.9774 3 18.6744 3 18.0686ZM6.68349 10.5521L6.68349 10.5521L6.31647 10.9482C6.20282 11.0709 6.14599 11.1322 6.12691 11.2048C6.1108 11.266 6.11584 11.3384 6.1403 11.3969C6.16927 11.4661 6.23028 11.5159 6.35231 11.6154C7.41393 12.4815 8.65392 13.0002 9.99998 13.0002C11.346 13.0002 12.586 12.4815 13.6477 11.6154C13.7697 11.5159 13.8307 11.4661 13.8597 11.3969C13.8841 11.3384 13.8892 11.266 13.873 11.2048C13.854 11.1322 13.7971 11.0709 13.6835 10.9482L13.3165 10.5521C13.2024 10.429 13.1454 10.3675 13.0819 10.3424C13.023 10.3191 12.9678 10.3149 12.906 10.3287C12.8394 10.3437 12.7682 10.3999 12.6258 10.5124C11.8026 11.1625 10.9116 11.5002 9.99998 11.5002C9.08839 11.5002 8.19733 11.1625 7.37412 10.5124C7.23175 10.3999 7.16056 10.3437 7.09393 10.3287C7.03212 10.3149 6.977 10.3191 6.91807 10.3424C6.85456 10.3675 6.79754 10.429 6.68349 10.5521Z" fill="black"/>
</svg>
