<svg width="20" height="20" viewBox="0 0 20 20" fill="none" xmlns="http://www.w3.org/2000/svg">
<rect x="1.25" y="1.25" width="17.5" height="17.5" rx="8.75" fill="#313131"/>
<rect x="1.25" y="1.25" width="17.5" height="17.5" rx="8.75" stroke="#171717" stroke-width="1.5"/>
<path fill-rule="evenodd" clip-rule="evenodd" d="M13.0413 7.38384C13.1585 7.501 13.1585 7.69095 13.0413 7.8081L7.80871 13.0407C7.69155 13.1579 7.5016 13.1579 7.38444 13.0407L6.96018 12.6164C6.84302 12.4993 6.84302 12.3093 6.96018 12.1922L12.1928 6.95957C12.3099 6.84242 12.4999 6.84242 12.617 6.95957L13.0413 7.38384Z" fill="#E9E9E9"/>
<path fill-rule="evenodd" clip-rule="evenodd" d="M12.6162 13.0403C12.499 13.1575 12.3091 13.1575 12.1919 13.0403L6.95931 7.80773C6.84215 7.69057 6.84215 7.50062 6.95931 7.38347L7.38357 6.9592C7.50073 6.84205 7.69068 6.84205 7.80784 6.9592L13.0404 12.1918C13.1576 12.3089 13.1576 12.4989 13.0404 12.6161L12.6162 13.0403Z" fill="#E9E9E9"/>
</svg>
