<svg width="24" height="24" viewBox="0 0 24 24" fill="none" xmlns="http://www.w3.org/2000/svg">
<path d="M17 4.5H10.5C10.2239 4.5 10 4.72386 10 5V19C10 19.2761 10.2239 19.5 10.5 19.5H17C17.2761 19.5 17.5 19.2761 17.5 19V18H19V19C19 20.1046 18.1046 21 17 21H5C3.89543 21 3 20.1046 3 19V5C3 3.89543 3.89543 3 5 3H17C18.1046 3 19 3.89543 19 5V6H17.5V5C17.5 4.72386 17.2761 4.5 17 4.5Z" fill="#E84B30"/>
<path d="M22.5303 11.4697L19.0303 7.96967L17.9697 9.03033L20.1893 11.25H13V12.75H20.1893L17.9697 14.9697L19.0303 16.0303L22.5303 12.5303C22.8232 12.2374 22.8232 11.7626 22.5303 11.4697Z" fill="#E84B30"/>
</svg>
