<svg width="16" height="16" viewBox="0 0 16 16" fill="none" xmlns="http://www.w3.org/2000/svg">
<g clip-path="url(#clip0_4059_83038)">
<path d="M7.9922 15.9922C5.84883 15.9922 3.85079 15.1567 2.325 13.6672C0.835548 12.1414 0 10.1434 0 8.00001C0 5.85665 0.835548 3.8586 2.325 2.33281C3.85079 0.84336 5.84883 0.0078125 7.9922 0.0078125C10.1356 0.0078125 12.1336 0.84336 13.6594 2.33281C16.7836 5.45704 16.7836 10.5067 13.6594 13.6309C12.1336 15.1567 10.1356 15.9922 7.9922 15.9922ZM7.9922 1.06133C6.13946 1.06133 4.39571 1.78789 3.08789 3.09571C1.78008 4.40352 1.05352 6.14727 1.05352 8.00001C1.05352 9.85274 1.78008 11.5965 3.08789 12.9043C4.39571 14.2121 6.13946 14.9387 7.9922 14.9387C9.84493 14.9387 11.5887 14.2121 12.8965 12.9043C15.6211 10.1797 15.6211 5.78399 12.8965 3.05938C11.5887 1.78789 9.84493 1.06133 7.9922 1.06133ZM5.1586 10.1797C5.1586 10.1797 6.10313 11.6692 7.9922 11.6692C9.88126 11.6692 11.1527 10.1797 11.1527 10.1797C11.1527 10.1797 11.843 10.1797 11.843 10.9426C11.843 10.9426 10.6078 12.6863 7.9922 12.6863C5.37657 12.6863 4.50469 10.9426 4.50469 10.9426C4.50469 10.9426 4.46836 10.1797 5.1586 10.1797ZM5.66719 5.42071C5.12227 5.42071 4.68633 5.85665 4.68633 6.40157C4.68633 6.94649 5.12227 7.38243 5.66719 7.38243C6.21212 7.38243 6.64805 6.94649 6.64805 6.40157C6.64805 5.85665 6.21212 5.42071 5.66719 5.42071ZM10.6805 5.42071C10.1356 5.42071 9.69962 5.85665 9.69962 6.40157C9.69962 6.94649 10.1356 7.38243 10.6805 7.38243C11.2254 7.38243 11.6613 6.94649 11.6613 6.40157C11.6613 5.85665 11.2254 5.42071 10.6805 5.42071Z" fill="black"/>
</g>
<defs>
<clipPath id="clip0_4059_83038">
<rect width="16" height="16" fill="white"/>
</clipPath>
</defs>
</svg>
