<svg width="24" height="24" viewBox="0 0 24 24" fill="none" xmlns="http://www.w3.org/2000/svg">
<path d="M9.53671 4.11244L9.28526 3.68027V3.68027L9.53671 4.11244ZM10.549 4.25239L10.1897 4.60013L10.1897 4.60013L10.549 4.25239ZM8.10958 4.94276L8.35581 5.37797L8.36102 5.37494L8.10958 4.94276ZM6.93289 5.60851L7.1791 6.04368L7.1791 6.04368L6.93289 5.60851ZM6.56257 6.58779L6.09002 6.75117V6.75117L6.56257 6.58779ZM4.71023 9.59994L4.7801 10.095H4.78011L4.71023 9.59994ZM4.00002 10.4225L4.50001 10.4194L4.00002 10.4225ZM4.00962 12L4.50965 12.0031L4.50961 11.997L4.00962 12ZM4.00002 13.5775L3.50002 13.5745L4.00002 13.5775ZM4.71023 14.4001L4.78011 13.905H4.7801L4.71023 14.4001ZM6.56257 17.4122L7.03512 17.5756V17.5756L6.56257 17.4122ZM6.93288 18.3915L6.68667 18.8267L6.93288 18.3915ZM8.10965 19.0573L8.36111 18.6251L8.35586 18.6221L8.10965 19.0573ZM9.53664 19.8876L9.78808 19.4554L9.78808 19.4554L9.53664 19.8876ZM10.5489 19.7476L10.9082 20.0953L10.9082 20.0953L10.5489 19.7476ZM13.8711 19.7472L14.2304 19.3994L14.2303 19.3994L13.8711 19.7472ZM14.8833 19.8871L15.1347 20.3192L14.8833 19.8871ZM16.3094 19.0573L16.0632 18.6221L16.058 18.6251L16.3094 19.0573ZM17.4873 18.3909L17.2411 17.9557L17.4873 18.3909ZM17.8577 17.4118L17.3851 17.575L17.3851 17.575L17.8577 17.4118ZM19.7092 14.4002L19.6391 13.9052L19.7092 14.4002ZM20.4191 13.5777L20.919 13.5747V13.5747L20.4191 13.5777ZM20.4095 12L19.9094 11.997L19.9095 12.0031L20.4095 12ZM20.4191 10.4223L20.919 10.4253L20.4191 10.4223ZM19.7092 9.5998L19.6391 10.0949L19.7092 9.5998ZM17.8577 6.58827L17.3851 6.425L17.3851 6.425L17.8577 6.58827ZM17.4873 5.60916L17.7335 5.17398L17.4873 5.60916ZM16.3095 4.94276L16.058 5.37496L16.0633 5.37793L16.3095 4.94276ZM14.8832 4.11295L15.1347 3.68077V3.68077L14.8832 4.11295ZM13.8711 4.25276L13.5119 3.90494V3.90494L13.8711 4.25276ZM9.78815 4.54462C9.91884 4.46858 10.0845 4.49149 10.1897 4.60013L10.9082 3.90465C10.4832 3.46553 9.81348 3.37294 9.28526 3.68027L9.78815 4.54462ZM8.36102 5.37494L9.78815 4.54462L9.28526 3.68027L7.85813 4.51059L8.36102 5.37494ZM7.1791 6.04368L8.35579 5.37794L7.86336 4.50759L6.68668 5.17333L7.1791 6.04368ZM7.03513 6.42442C6.98499 6.27939 7.04555 6.11925 7.1791 6.04368L6.68668 5.17333C6.1332 5.48647 5.88223 6.15015 6.09002 6.75117L7.03513 6.42442ZM7.18689 7.33249C7.18689 7.014 7.13339 6.70865 7.03513 6.42442L6.09002 6.75117C6.15245 6.93176 6.18689 7.12676 6.18689 7.33249H7.18689ZM4.78011 10.095C6.13848 9.90331 7.18689 8.7411 7.18689 7.33249H6.18689C6.18689 8.23173 5.51638 8.98121 4.64035 9.10485L4.78011 10.095ZM4.50001 10.4194C4.49901 10.2564 4.6187 10.1178 4.7801 10.095L4.64035 9.10485C3.98326 9.19759 3.49598 9.76192 3.50002 10.4255L4.50001 10.4194ZM4.50961 11.997L4.50001 10.4194L3.50002 10.4255L3.50963 12.0031L4.50961 11.997ZM4.50001 13.5806L4.50961 12.0031L3.50963 11.997L3.50002 13.5745L4.50001 13.5806ZM4.7801 13.905C4.6187 13.8822 4.49901 13.7436 4.50001 13.5806L3.50002 13.5745C3.49598 14.2381 3.98326 14.8024 4.64035 14.8952L4.7801 13.905ZM7.18689 16.6675C7.18689 15.2589 6.13848 14.0967 4.78011 13.905L4.64035 14.8952C5.51638 15.0188 6.18689 15.7683 6.18689 16.6675H7.18689ZM7.03512 17.5756C7.13339 17.2914 7.18689 16.986 7.18689 16.6675H6.18689C6.18689 16.8733 6.15245 17.0683 6.09001 17.2489L7.03512 17.5756ZM7.1791 17.9564C7.04554 17.8808 6.98498 17.7206 7.03512 17.5756L6.09001 17.2489C5.88222 17.8499 6.13319 18.5136 6.68667 18.8267L7.1791 17.9564ZM8.35586 18.6221L7.1791 17.9564L6.68667 18.8267L7.86344 19.4925L8.35586 18.6221ZM9.78808 19.4554L8.3611 18.6251L7.85821 19.4895L9.28519 20.3197L9.78808 19.4554ZM10.1896 19.3999C10.0845 19.5085 9.91878 19.5314 9.78808 19.4554L9.28519 20.3197C9.81343 20.6271 10.4832 20.5345 10.9082 20.0953L10.1896 19.3999ZM12.2102 18.5447C11.4171 18.5447 10.7007 18.8718 10.1896 19.3999L10.9082 20.0953C11.2378 19.7548 11.6978 19.5447 12.2102 19.5447V18.5447ZM14.2303 19.3994C13.7193 18.8716 13.0031 18.5447 12.2102 18.5447V19.5447C12.7225 19.5447 13.1824 19.7547 13.5119 20.095L14.2303 19.3994ZM14.6319 19.4549C14.5012 19.5309 14.3355 19.508 14.2304 19.3994L13.5119 20.095C13.937 20.534 14.6066 20.6265 15.1347 20.3192L14.6319 19.4549ZM16.058 18.6251L14.6319 19.4549L15.1347 20.3192L16.5609 19.4895L16.058 18.6251ZM17.2411 17.9557L16.0632 18.6221L16.5556 19.4925L17.7336 18.8261L17.2411 17.9557ZM17.3851 17.575C17.4352 17.72 17.3747 17.8802 17.2411 17.9557L17.7336 18.8261C18.2869 18.513 18.5379 17.8494 18.3303 17.2485L17.3851 17.575ZM17.2336 16.6675C17.2336 16.9858 17.287 17.291 17.3851 17.575L18.3303 17.2485C18.268 17.068 18.2336 16.8731 18.2336 16.6675H17.2336ZM19.6391 13.9052C18.2813 14.0974 17.2336 15.2593 17.2336 16.6675H18.2336C18.2336 15.7686 18.9037 15.0193 19.7793 14.8953L19.6391 13.9052ZM19.9191 13.5808C19.9201 13.7437 19.8004 13.8823 19.6391 13.9052L19.7793 14.8953C20.4361 14.8023 20.9231 14.2381 20.919 13.5747L19.9191 13.5808ZM19.9095 12.0031L19.9191 13.5808L20.919 13.5747L20.9094 11.997L19.9095 12.0031ZM19.9191 10.4192L19.9095 11.997L20.9094 12.0031L20.919 10.4253L19.9191 10.4192ZM19.6391 10.0949C19.8005 10.1177 19.9201 10.2563 19.9191 10.4192L20.919 10.4253C20.9231 9.76195 20.4361 9.19774 19.7793 9.10473L19.6391 10.0949ZM17.2336 7.33249C17.2336 8.74067 18.2813 9.90261 19.6391 10.0949L19.7793 9.10473C18.9037 8.98075 18.2336 8.23145 18.2336 7.33249H17.2336ZM17.3851 6.425C17.287 6.70907 17.2336 7.01423 17.2336 7.33249H18.2336C18.2336 7.1269 18.268 6.93202 18.3303 6.75154L17.3851 6.425ZM17.2411 6.04434C17.3747 6.11988 17.4352 6.27999 17.3851 6.425L18.3303 6.75154C18.5379 6.15058 18.2869 5.48707 17.7335 5.17398L17.2411 6.04434ZM16.0633 5.37793L17.2411 6.04434L17.7335 5.17398L16.5557 4.50758L16.0633 5.37793ZM14.6318 4.54512L16.058 5.37493L16.5609 4.51058L15.1347 3.68077L14.6318 4.54512ZM14.2303 4.60058C14.3355 4.49198 14.5011 4.4691 14.6318 4.54512L15.1347 3.68077C14.6066 3.3735 13.937 3.466 13.5119 3.90494L14.2303 4.60058ZM12.2102 5.45523C13.003 5.45523 13.7193 5.12831 14.2303 4.60058L13.5119 3.90494C13.1823 4.24527 12.7225 4.45523 12.2102 4.45523V5.45523ZM10.1897 4.60013C10.7008 5.12812 11.4172 5.45523 12.2102 5.45523V4.45523C11.6978 4.45523 11.2378 4.24516 10.9082 3.90464L10.1897 4.60013ZM14.4911 11.9999C14.4911 13.2359 13.4891 14.2379 12.2531 14.2379V15.2379C14.0414 15.2379 15.4911 13.7882 15.4911 11.9999H14.4911ZM12.2531 9.76192C13.4891 9.76192 14.4911 10.7639 14.4911 11.9999H15.4911C15.4911 10.2116 14.0414 8.76192 12.2531 8.76192V9.76192ZM10.0152 11.9999C10.0152 10.7639 11.0171 9.76192 12.2531 9.76192V8.76192C10.4648 8.76192 9.01515 10.2116 9.01515 11.9999H10.0152ZM12.2531 14.2379C11.0171 14.2379 10.0152 13.2359 10.0152 11.9999H9.01515C9.01515 13.7882 10.4648 15.2379 12.2531 15.2379V14.2379Z" fill="#4E5461" style="fill-opacity: 1"/>
</svg>
