<svg width="28" height="28" viewBox="0 0 28 28" fill="none" xmlns="http://www.w3.org/2000/svg">
<path fill-rule="evenodd" clip-rule="evenodd" d="M10.3536 9.64645C10.1583 9.45118 9.84171 9.45118 9.64645 9.64645C9.45118 9.84171 9.45118 10.1583 9.64645 10.3536L12.8284 13.5356L9.64648 16.7175C9.45122 16.9128 9.45122 17.2294 9.64648 17.4246C9.84174 17.6199 10.1583 17.6199 10.3536 17.4246L13.5355 14.2427L16.7175 17.4246C16.9127 17.6199 17.2293 17.6199 17.4246 17.4246C17.6199 17.2294 17.6199 16.9128 17.4246 16.7175L14.2426 13.5356L17.4246 10.3536C17.6199 10.1583 17.6199 9.84171 17.4246 9.64645C17.2294 9.45118 16.9128 9.45118 16.7175 9.64645L13.5355 12.8284L10.3536 9.64645Z" fill="white"/>
</svg>
