<svg width="24" height="24" viewBox="0 0 24 24" fill="none" xmlns="http://www.w3.org/2000/svg">
<path fill-rule="evenodd" clip-rule="evenodd" d="M12 20.3C16.584 20.3 20.3 16.584 20.3 12C20.3 7.41604 16.584 3.7 12 3.7C7.41604 3.7 3.7 7.41604 3.7 12C3.7 16.584 7.41604 20.3 12 20.3ZM12 21.5C17.2467 21.5 21.5 17.2467 21.5 12C21.5 6.75329 17.2467 2.5 12 2.5C6.75329 2.5 2.5 6.75329 2.5 12C2.5 17.2467 6.75329 21.5 12 21.5Z" fill="#999999"/>
<path d="M8.40234 8.75068C8.40234 8.585 8.53666 8.45068 8.70234 8.45068H9.30234C9.46803 8.45068 9.60234 8.585 9.60234 8.75068V11.7507C9.60234 11.9164 9.46803 12.0507 9.30234 12.0507H8.70234C8.53666 12.0507 8.40234 11.9164 8.40234 11.7507V8.75068Z" fill="#999999"/>
<path fill-rule="evenodd" clip-rule="evenodd" d="M13.1273 10.8567C12.6607 10.5873 12.6607 9.91372 13.1273 9.64429L15.0378 8.54126C15.1813 8.45842 15.3648 8.50758 15.4477 8.65107L15.7477 9.17068C15.8305 9.31417 15.7813 9.49765 15.6378 9.58049L14.4773 10.2505L15.6378 10.9205C15.7813 11.0034 15.8305 11.1868 15.7477 11.3303L15.4477 11.8499C15.3648 11.9934 15.1813 12.0426 15.0378 11.9598L13.1273 10.8567Z" fill="#999999"/>
<path fill-rule="evenodd" clip-rule="evenodd" d="M11.8103 15.6061C12.8656 15.6061 13.7681 14.9879 14.1766 14.1017C14.246 13.9512 14.4136 13.8639 14.5712 13.9151L15.1419 14.1003C15.2995 14.1515 15.3869 14.3213 15.3233 14.4743C14.7534 15.8446 13.3965 16.8061 11.8103 16.8061C10.9593 16.8061 10.1719 16.5288 9.53718 16.0602C9.40389 15.9618 9.39111 15.7712 9.49969 15.6461L9.8929 15.1929C10.0015 15.0678 10.1901 15.0559 10.3269 15.1495C10.7476 15.4374 11.2582 15.6061 11.8103 15.6061Z" fill="#999999"/>
</svg>
