<svg width="24" height="24" viewBox="0 0 24 24" fill="none" xmlns="http://www.w3.org/2000/svg">
<path d="M21.4941 11.9658C21.4941 17.2125 17.2408 21.4658 11.9941 21.4658C6.74744 21.4658 2.49414 17.2125 2.49414 11.9658C2.49414 6.71912 6.74744 2.46582 11.9941 2.46582C17.2408 2.46582 21.4941 6.71912 21.4941 11.9658Z" fill="#FFD361"/>
<g filter="url(#filter0_f_24621_240802)">
<path d="M8.19375 13.7658C8.19375 14.7599 7.38786 15.5658 6.39375 15.5658C5.39964 15.5658 4.59375 14.7599 4.59375 13.7658C4.59375 12.7717 5.39964 11.9658 6.39375 11.9658C7.38786 11.9658 8.19375 12.7717 8.19375 13.7658Z" fill="#FF33AD" fill-opacity="0.35"/>
</g>
<g filter="url(#filter1_f_24621_240802)">
<path d="M18.9945 13.7658C18.9945 14.7599 18.1886 15.5658 17.1945 15.5658C16.2004 15.5658 15.3945 14.7599 15.3945 13.7658C15.3945 12.7717 16.2004 11.9658 17.1945 11.9658C18.1886 11.9658 18.9945 12.7717 18.9945 13.7658Z" fill="#FF33AD" fill-opacity="0.35"/>
</g>
<path d="M8.60078 8.3415C8.39367 8.3415 8.22578 8.5094 8.22578 8.7165V11.7165C8.22578 11.9236 8.39367 12.0915 8.60078 12.0915H9.20078C9.40789 12.0915 9.57578 11.9236 9.57578 11.7165V8.7165C9.57578 8.5094 9.40789 8.3415 9.20078 8.3415H8.60078Z" fill="#3C4548" stroke="#3C4548" stroke-width="0.15"/>
<path d="M13.0008 9.56681C12.5008 9.85548 12.5008 10.5772 13.0008 10.8658L14.9113 11.9689C15.0787 12.0655 15.2927 12.0082 15.3894 11.8408L15.6894 11.3212C15.786 11.1538 15.7287 10.9397 15.5613 10.843L14.4758 10.2163L15.5613 9.58961C15.7287 9.49296 15.786 9.27891 15.6894 9.1115L15.3894 8.59189C15.2927 8.42449 15.0787 8.36713 14.9113 8.46378L13.0008 9.56681Z" fill="#3C4548" stroke="#3C4548" stroke-width="0.1"/>
<path d="M14.0297 14.0471C13.6291 14.916 12.744 15.5224 11.7088 15.5224C11.167 15.5224 10.6662 15.3569 10.2535 15.0745C10.0988 14.9687 9.88107 14.9795 9.75357 15.1264L9.36037 15.5796C9.23444 15.7248 9.24705 15.9494 9.40592 16.0667C10.049 16.5415 10.8468 16.8224 11.7088 16.8224C13.3156 16.8224 14.6904 15.8482 15.2679 14.4598C15.3438 14.2774 15.2385 14.0784 15.0558 14.0191L14.4851 13.8338C14.3 13.7738 14.1081 13.877 14.0297 14.0471Z" fill="#3C4548" stroke="#3C4548" stroke-width="0.1"/>
<path d="M21.0075 1.54077C20.9137 1.37443 20.6741 1.37443 20.5803 1.54077L20.0532 2.47522L19.1188 3.00228C18.9524 3.0961 18.9524 3.33565 19.1188 3.42947L20.0532 3.95653L20.5803 4.89098C20.6741 5.05732 20.9137 5.05732 21.0075 4.89098L21.5345 3.95653L22.469 3.42947C22.6353 3.33565 22.6353 3.0961 22.469 3.00228L21.5345 2.47522L21.0075 1.54077Z" fill="#70B7FF"/>
<path d="M3.57928 19.1017C3.49618 18.9544 3.28399 18.9544 3.20088 19.1017L2.73402 19.9294L1.9063 20.3963C1.75896 20.4794 1.75896 20.6916 1.9063 20.7747L2.73402 21.2416L3.20088 22.0693C3.28399 22.2166 3.49618 22.2166 3.57928 22.0693L4.04614 21.2416L4.87387 20.7747C5.02121 20.6916 5.02121 20.4794 4.87387 20.3963L4.04614 19.9294L3.57928 19.1017Z" fill="#7A9FFF"/>
<path d="M22.7571 16.1627C22.6836 16.0324 22.4959 16.0324 22.4224 16.1627L22.0095 16.8948L21.2773 17.3078C21.147 17.3813 21.147 17.569 21.2773 17.6425L22.0095 18.0555L22.4224 18.7876C22.4959 18.9179 22.6836 18.9179 22.7571 18.7876L23.1701 18.0555L23.9023 17.6425C24.0326 17.569 24.0326 17.3813 23.9023 17.3078L23.1701 16.8948L22.7571 16.1627Z" fill="#3AD4C2"/>
<defs>
<filter id="filter0_f_24621_240802" x="2.19375" y="9.56582" width="8.39961" height="8.4001" filterUnits="userSpaceOnUse" color-interpolation-filters="sRGB">
<feFlood flood-opacity="0" result="BackgroundImageFix"/>
<feBlend mode="normal" in="SourceGraphic" in2="BackgroundImageFix" result="shape"/>
<feGaussianBlur stdDeviation="1.2" result="effect1_foregroundBlur_24621_240802"/>
</filter>
<filter id="filter1_f_24621_240802" x="12.9945" y="9.56582" width="8.39961" height="8.4001" filterUnits="userSpaceOnUse" color-interpolation-filters="sRGB">
<feFlood flood-opacity="0" result="BackgroundImageFix"/>
<feBlend mode="normal" in="SourceGraphic" in2="BackgroundImageFix" result="shape"/>
<feGaussianBlur stdDeviation="1.2" result="effect1_foregroundBlur_24621_240802"/>
</filter>
</defs>
</svg>
