<svg width="24" height="24" viewBox="0 0 24 24" fill="none" xmlns="http://www.w3.org/2000/svg">
<path fill-rule="evenodd" clip-rule="evenodd" d="M12 4C7.58172 4 4 7.58172 4 12C4 16.4183 7.58172 20 12 20C16.4183 20 20 16.4183 20 12C20 7.58172 16.4183 4 12 4ZM3 12C3 7.02944 7.02944 3 12 3C16.9706 3 21 7.02944 21 12C21 16.9706 16.9706 21 12 21C7.02944 21 3 16.9706 3 12ZM8.73077 12C8.45463 12 8.23077 11.7761 8.23077 11.5V8.57692C8.23077 8.30078 8.45463 8.07692 8.73077 8.07692C9.00691 8.07692 9.23077 8.30078 9.23077 8.57692V11.5C9.23077 11.7761 9.00691 12 8.73077 12ZM13.6842 9.62244L15.2297 8.59209C15.4595 8.43892 15.7699 8.501 15.9231 8.73077C16.0763 8.96053 16.0142 9.27097 15.7844 9.42414L14.8629 10.0385L15.7844 10.6528C16.0142 10.806 16.0763 11.1164 15.9231 11.3462C15.7699 11.5759 15.4595 11.638 15.2297 11.4848L13.6842 10.4545C13.5451 10.3618 13.4615 10.2056 13.4615 10.0385C13.4615 9.87128 13.5451 9.71517 13.6842 9.62244ZM12.3113 16.2552C11.1705 16.4073 9.99046 16.1719 9.04941 15.8937C8.78459 15.8155 8.64345 15.5312 8.73077 15.2692C8.81809 15.0073 9.10089 14.8669 9.36595 14.9444C10.2367 15.1989 11.2465 15.3884 12.1791 15.264C12.7251 15.1912 13.233 15.0122 13.673 14.6844C14.0151 14.4295 14.3319 14.073 14.5956 13.5758C14.725 13.3319 15.0128 13.2051 15.2692 13.3077C15.5256 13.4102 15.6527 13.7027 15.5282 13.9493C15.1936 14.612 14.7662 15.1169 14.2705 15.4863C13.6684 15.9349 12.9912 16.1646 12.3113 16.2552Z" fill="white" fill-opacity="0.5"/>
</svg>
