<svg width="24" height="25" viewBox="0 0 24 25" fill="none" xmlns="http://www.w3.org/2000/svg">
<g id="&#233;&#130;&#128;&#232;&#175;&#183; icon">
<path id="Rectangle 240648714" d="M6 8.43799C6 6.22885 7.79086 4.43799 10 4.43799C12.2091 4.43799 14 6.22885 14 8.43799C14 10.6471 12.2091 12.438 10 12.438C7.79086 12.438 6 10.6471 6 8.43799Z" fill="black"/>
<path id="Subtract" fill-rule="evenodd" clip-rule="evenodd" d="M12.4542 14.144C11.702 14.0158 10.8821 13.938 10 13.938C7.37412 13.938 5.29986 14.6275 3.92207 15.2823C3.47385 15.4953 3.24974 15.6018 2.88633 15.9627C2.63701 16.2102 2.28643 16.765 2.16988 17.0964C2 17.5795 2 17.9484 2 18.6862V20.438H13.5278C12.5777 19.3765 12 17.9747 12 16.438C12 15.6255 12.1615 14.8507 12.4542 14.144Z" fill="black"/>
<path id="Subtract_2" fill-rule="evenodd" clip-rule="evenodd" d="M18 21.438C20.7614 21.438 23 19.1994 23 16.438C23 13.6766 20.7614 11.438 18 11.438C15.2386 11.438 13 13.6766 13 16.438C13 19.1994 15.2386 21.438 18 21.438ZM18.5437 13.688C18.7094 13.688 18.8438 13.8223 18.8438 13.988V15.688H20.5437C20.7094 15.688 20.8438 15.8223 20.8438 15.988V16.888C20.8438 17.0537 20.7094 17.188 20.5437 17.188H18.8438V18.888C18.8438 19.0537 18.7094 19.188 18.5437 19.188H17.6437C17.4781 19.188 17.3438 19.0537 17.3438 18.888V17.188H15.6437C15.4781 17.188 15.3438 17.0537 15.3438 16.888V15.988C15.3438 15.8223 15.4781 15.688 15.6437 15.688H17.3438V13.988C17.3438 13.8223 17.4781 13.688 17.6438 13.688H18.5437Z" fill="black"/>
</g>
</svg>
