<svg width="24" height="24" viewBox="0 0 24 24" fill="none" xmlns="http://www.w3.org/2000/svg">
<g id="&#233;&#130;&#128;&#232;&#175;&#183; icon">
<path id="Rectangle 240648714" d="M6 8C6 5.79086 7.79086 4 10 4C12.2091 4 14 5.79086 14 8C14 10.2091 12.2091 12 10 12C7.79086 12 6 10.2091 6 8Z" fill="#666666"/>
<path id="Subtract" fill-rule="evenodd" clip-rule="evenodd" d="M12.4542 13.706C11.702 13.5778 10.8821 13.5 10 13.5C7.37412 13.5 5.29986 14.1895 3.92207 14.8443C3.47385 15.0573 3.24974 15.1639 2.88633 15.5247C2.63701 15.7722 2.28643 16.327 2.16988 16.6584C2 17.1415 2 17.5104 2 18.2482V20H13.5278C12.5777 18.9385 12 17.5367 12 16C12 15.1875 12.1615 14.4127 12.4542 13.706Z" fill="#666666"/>
<path id="Subtract_2" fill-rule="evenodd" clip-rule="evenodd" d="M18 21C20.7614 21 23 18.7614 23 16C23 13.2386 20.7614 11 18 11C15.2386 11 13 13.2386 13 16C13 18.7614 15.2386 21 18 21ZM18.5437 13.25C18.7094 13.25 18.8438 13.3843 18.8438 13.55V15.25H20.5437C20.7094 15.25 20.8438 15.3843 20.8438 15.55V16.45C20.8438 16.6157 20.7094 16.75 20.5437 16.75H18.8438V18.45C18.8438 18.6157 18.7094 18.75 18.5437 18.75H17.6437C17.4781 18.75 17.3438 18.6157 17.3438 18.45V16.75H15.6437C15.4781 16.75 15.3438 16.6157 15.3438 16.45V15.55C15.3438 15.3843 15.4781 15.25 15.6437 15.25H17.3438V13.55C17.3438 13.3843 17.4781 13.25 17.6438 13.25H18.5437Z" fill="#666666"/>
</g>
</svg>
