<svg width="16" height="16" viewBox="0 0 16 16" fill="none" xmlns="http://www.w3.org/2000/svg">
<path fill-rule="evenodd" clip-rule="evenodd" d="M14 8.75C14 9.02614 13.7761 9.25 13.5 9.25H2.5C2.22386 9.25 2 9.02614 2 8.75V7.25C2 6.97386 2.22386 6.75 2.5 6.75H13.5C13.7761 6.75 14 6.97386 14 7.25V8.75Z" fill="#E9E9E9" style="fill-opacity: 1"/>
<path fill-rule="evenodd" clip-rule="evenodd" d="M7.25 14C6.97386 14 6.75 13.7762 6.75 13.5V2.5C6.75 2.22386 6.97386 2 7.25 2H8.75C9.02614 2 9.25 2.22386 9.25 2.5V13.5C9.25 13.7762 9.02614 14 8.75 14H7.25Z" fill="#E9E9E9" style="fill-opacity: 1"/>
</svg>
