<svg width="24" height="25" viewBox="0 0 24 25" fill="none" xmlns="http://www.w3.org/2000/svg">
<g id="&#230;&#136;&#144;&#229;&#145;&#152; icon">
<path id="Subtract" fill-rule="evenodd" clip-rule="evenodd" d="M18 19.4619V17.867C18 16.6971 17.4739 15.47 16.316 14.8209C16.1487 14.7271 15.9659 14.6296 15.7682 14.5305C16.1582 14.4867 16.5692 14.4619 17 14.4619C19.3676 14.4619 21.1372 15.2093 22.1202 15.7604C22.7027 16.0869 23 16.723 23 17.3908V19.4619H18Z" fill="black"/>
<path id="Ellipse 417" d="M20 10.4619C20 12.1188 18.6569 13.4619 17 13.4619C15.3431 13.4619 14 12.1188 14 10.4619C14 8.80506 15.3431 7.46191 17 7.46191C18.6569 7.46191 20 8.80506 20 10.4619Z" fill="black"/>
<path id="Union" fill-rule="evenodd" clip-rule="evenodd" d="M9 12.4619C11.2091 12.4619 13 10.6711 13 8.46191C13 6.25278 11.2091 4.46191 9 4.46191C6.79086 4.46191 5 6.25278 5 8.46191C5 10.6711 6.79086 12.4619 9 12.4619ZM1.16988 17.1203C1 17.6034 1 17.9723 1 18.7101V20.4619H17V18.7101C17 17.9723 17 17.6034 16.8301 17.1203C16.7136 16.7889 16.363 16.2341 16.1137 15.9866C15.7503 15.6258 15.5262 15.5193 15.0779 15.3062C13.7001 14.6514 11.6259 13.9619 9 13.9619C6.37412 13.9619 4.29986 14.6514 2.92207 15.3062C2.47385 15.5193 2.24974 15.6258 1.88633 15.9866C1.63701 16.2341 1.28643 16.7889 1.16988 17.1203Z" fill="black"/>
<path id="Rectangle 240648715" d="M5 8.46191C5 6.25278 6.79086 4.46191 9 4.46191C11.2091 4.46191 13 6.25278 13 8.46191C13 10.6711 11.2091 12.4619 9 12.4619C6.79086 12.4619 5 10.6711 5 8.46191Z" fill="black"/>
<path id="Rectangle 240648716" d="M14 10.4619C14 8.80506 15.3431 7.46191 17 7.46191C18.6569 7.46191 20 8.80506 20 10.4619C20 12.1188 18.6569 13.4619 17 13.4619C15.3431 13.4619 14 12.1188 14 10.4619Z" fill="black"/>
</g>
</svg>
