<svg width="24" height="24" viewBox="0 0 24 24" fill="none" xmlns="http://www.w3.org/2000/svg">
<path fill-rule="nonzero" clip-rule="nonzero" d="M16.0593 5.46567C15.3579 3.71812 13.7807 2.5 11.9473 2.5C9.46206 2.5 7.44734 4.73858 7.44734 7.5V11C7.44734 11.9041 7.6633 12.7521 8.04103 13.4839L16.0593 5.46567ZM8.31188 18.1628L9.86018 16.6145C10.5066 16.8863 11.2166 17.0364 11.9615 17.0364C14.1986 17.0364 16.1219 15.6819 16.9514 13.7453C17.0166 13.593 17.188 13.5122 17.3437 13.5689L18.7279 14.0726C18.8835 14.1292 18.9644 14.3017 18.9015 14.455C17.901 16.8937 15.6519 18.69 12.9473 19.0451V21.2C12.9473 21.3657 12.813 21.5 12.6473 21.5H11.2473C11.0817 21.5 10.9473 21.3657 10.9473 21.2V19.0414C10.0013 18.9135 9.11146 18.6092 8.31188 18.1628ZM5.7349 15.79L7.23953 14.2854C7.14062 14.1112 7.05107 13.9309 6.97157 13.7453C6.90633 13.593 6.73493 13.5122 6.57923 13.5689L5.19508 14.0726C5.03938 14.1292 4.95853 14.3017 5.02142 14.455C5.2146 14.9259 5.45433 15.3728 5.7349 15.79ZM10.6768 15.7979L16.4473 10.0273V11C16.4473 13.7614 14.4326 16 11.9473 16C11.5061 16 11.0797 15.9294 10.6768 15.7979Z" fill="black" style="fill:#373C48;fill:color(display-p3 0.2157 0.2353 0.2824);fill-opacity:1;"/>
</svg>
