<svg width="24" height="24" viewBox="0 0 24 24" fill="none" xmlns="http://www.w3.org/2000/svg">
<path d="M7.44739 7.5C7.44739 4.73858 9.46211 2.5 11.9474 2.5C14.4327 2.5 16.4474 4.73858 16.4474 7.5V11C16.4474 13.7614 14.4327 16 11.9474 16C9.46211 16 7.44739 13.7614 7.44739 11V7.5Z" fill="#000" style="fill:#000;fill-opacity:1;"/>
<path fill-rule="evenodd" clip-rule="evenodd" d="M6.97163 13.7453C6.9064 13.593 6.73499 13.5122 6.5793 13.5689L5.19515 14.0726C5.03945 14.1292 4.9586 14.3017 5.02149 14.455C6.01847 16.8852 8.25541 18.6774 10.9474 19.0414V21.2C10.9474 21.3657 11.0817 21.5 11.2474 21.5H12.6474C12.813 21.5 12.9474 21.3657 12.9474 21.2V19.0451C15.6519 18.69 17.9011 16.8937 18.9016 14.455C18.9645 14.3017 18.8836 14.1292 18.7279 14.0726L17.3438 13.5689C17.1881 13.5122 17.0167 13.593 16.9514 13.7453C16.1219 15.6819 14.1987 17.0364 11.9615 17.0364C9.72436 17.0364 7.80115 15.6819 6.97163 13.7453Z" fill="#000" style="fill:#000;fill-opacity:1;"/>
</svg>
