<svg width="25" height="24" viewBox="0 0 25 24" fill="none" xmlns="http://www.w3.org/2000/svg">
<path fill-rule="evenodd" clip-rule="evenodd" d="M21.5 12C21.5 16.9706 17.4706 21 12.5 21C7.52944 21 3.5 16.9706 3.5 12C3.5 7.02944 7.52944 3 12.5 3C17.4706 3 21.5 7.02944 21.5 12ZM17.52 12.02C17.52 14.7814 15.2814 17.02 12.52 17.02C9.75858 17.02 7.52 14.7814 7.52 12.02C7.52 9.25857 9.75858 7.02 12.52 7.02C15.2814 7.02 17.52 9.25857 17.52 12.02ZM12.52 18.02C15.8337 18.02 18.52 15.3337 18.52 12.02C18.52 8.70629 15.8337 6.02 12.52 6.02C9.2063 6.02 6.52 8.70629 6.52 12.02C6.52 15.3337 9.2063 18.02 12.52 18.02Z" fill="#D0D0D0" style="fill-opacity: 1"/>
<path fill-rule="evenodd" clip-rule="evenodd" d="M21.4863 12.501C21.2354 17.0727 17.5727 20.7354 13.001 20.9863L8.5 16.4853L8.50583 16.4795C9.56903 17.4371 10.9764 18.02 12.52 18.02C15.8337 18.02 18.52 15.3337 18.52 12.02C18.52 10.4764 17.9371 9.069 16.9795 8.0058L16.9853 8L21.4863 12.501Z" fill="url(#paint0_linear_26583_18410)" fill-opacity="0.2" style=""/>
<defs>
<linearGradient id="paint0_linear_26583_18410" x1="14.5" y1="14" x2="18.2737" y2="18.6824" gradientUnits="userSpaceOnUse">
<stop stop-color="#2E3344" style="stop-opacity: 1"/>
<stop offset="1" stop-color="#2E3344" stop-opacity="0" style="stop-opacity: 0"/>
</linearGradient>
</defs>
</svg>
