<svg width="24" height="24" viewBox="0 0 24 24" fill="none" xmlns="http://www.w3.org/2000/svg">
<g clip-path="url(#clip0_26583_42031)">
<g clip-path="url(#clip1_26583_42031)">
<path fill-rule="evenodd" clip-rule="evenodd" d="M21 12C21 16.9706 16.9706 21 12 21C7.02944 21 3 16.9706 3 12C3 7.02944 7.02944 3 12 3C16.9706 3 21 7.02944 21 12ZM17.02 12.02C17.02 14.7814 14.7814 17.02 12.02 17.02C9.25858 17.02 7.02 14.7814 7.02 12.02C7.02 9.25857 9.25858 7.02 12.02 7.02C14.7814 7.02 17.02 9.25857 17.02 12.02ZM12.02 18.02C15.3337 18.02 18.02 15.3337 18.02 12.02C18.02 8.70629 15.3337 6.02 12.02 6.02C8.7063 6.02 6.02 8.70629 6.02 12.02C6.02 15.3337 8.7063 18.02 12.02 18.02Z" fill="#3392FF" style="fill-opacity: 1"/>
<g style="mix-blend-mode:multiply" opacity="0.3">
<path fill-rule="evenodd" clip-rule="evenodd" d="M20.9863 12.501C20.7354 17.0727 17.0727 20.7354 12.501 20.9863L8 16.4853L8.00583 16.4795C9.06903 17.4371 10.4764 18.02 12.02 18.02C15.3337 18.02 18.02 15.3337 18.02 12.02C18.02 10.4764 17.4371 9.069 16.4795 8.0058L16.4853 8L20.9863 12.501Z" fill="url(#paint0_linear_26583_42031)" style=""/>
</g>
</g>
</g>
<defs>
<linearGradient id="paint0_linear_26583_42031" x1="10.5" y1="14" x2="18.1439" y2="21.3694" gradientUnits="userSpaceOnUse">
<stop stop-color="#004CFF" style="stop-opacity: 1"/>
<stop offset="1" stop-color="#004BFF" stop-opacity="0" style="stop-opacity: 0"/>
</linearGradient>
<clipPath id="clip0_26583_42031">
<rect width="24" height="24" fill="white" style="fill-opacity: 1"/>
</clipPath>
<clipPath id="clip1_26583_42031">
<rect width="18" height="18" fill="white" style="fill-opacity: 1" transform="translate(3 3)"/>
</clipPath>
</defs>
</svg>
