<svg width="16" height="16" viewBox="0 0 16 16" fill="none" xmlns="http://www.w3.org/2000/svg">
<path fill-rule="evenodd" clip-rule="evenodd" d="M10.5 3C10.2239 3 10 3.22386 10 3.5V4.5H6V3.5C6 3.22386 5.77614 3 5.5 3H4.5C4.22386 3 4 3.22386 4 3.5V4.5L3.8 4.5C3.08203 4.5 2.5 5.08203 2.5 5.8V12.2C2.5 12.918 3.08203 13.5 3.8 13.5H12.2C12.918 13.5 13.5 12.918 13.5 12.2V5.8C13.5 5.08203 12.918 4.5 12.2 4.5L12 4.5V3.5C12 3.22386 11.7761 3 11.5 3H10.5ZM11.0303 8.03033C11.3232 7.73744 11.3232 7.26256 11.0303 6.96967C10.7374 6.67678 10.2626 6.67678 9.96967 6.96967L7.58114 9.35819L6.6 8.05C6.35147 7.71863 5.88137 7.65147 5.55 7.9C5.21863 8.14853 5.15147 8.61863 5.4 8.95L6.9 10.95C7.03045 11.1239 7.22996 11.2327 7.44683 11.2481C7.6637 11.2635 7.87659 11.1841 8.03033 11.0303L11.0303 8.03033Z" fill="#141A1F" style="fill-opacity: 1"/>
</svg>
