<svg width="24" height="24" viewBox="0 0 24 24" fill="none" xmlns="http://www.w3.org/2000/svg">
<path fill-rule="evenodd" clip-rule="evenodd" d="M13 4H3V17H21V12C21 9.19974 21 7.79961 20.455 6.73005C19.9757 5.78924 19.2108 5.02433 18.27 4.54497C17.2004 4 15.8003 4 13 4ZM12.5303 8.46967C12.2374 8.17678 11.7626 8.17678 11.4697 8.46967L8.1818 11.7575C8.06464 11.8747 8.06464 12.0646 8.1818 12.1818L8.81819 12.8182C8.93535 12.9354 9.1253 12.9354 9.24246 12.8182L11.7879 10.2728C11.905 10.1556 12.095 10.1556 12.2121 10.2728L14.7575 12.8182C14.8747 12.9354 15.0646 12.9354 15.1818 12.8182L15.8182 12.1818C15.9354 12.0646 15.9354 11.8747 15.8182 11.7575L12.5303 8.46967Z" fill="#373C48" style="fill-opacity: 1"/>
<path fill-rule="evenodd" clip-rule="evenodd" d="M13 6H5V15H19V12C19 10.5669 18.9984 9.6123 18.9385 8.87887C18.8805 8.1688 18.7779 7.84387 18.673 7.63803C18.3854 7.07354 17.9265 6.6146 17.362 6.32698C17.1561 6.2221 16.8312 6.11949 16.1211 6.06148C15.3877 6.00156 14.4331 6 13 6ZM3 4V17H21V12C21 9.19974 21 7.79961 20.455 6.73005C19.9757 5.78924 19.2108 5.02433 18.27 4.54497C17.2004 4 15.8003 4 13 4H3Z" fill="#27D08E" style="fill-opacity: 1"/>
<path fill-rule="evenodd" clip-rule="evenodd" d="M15.54 18.72C15.849 19.132 16.0035 19.338 15.9999 19.5104C15.9968 19.6604 15.9264 19.8012 15.8082 19.8937C15.6725 20 15.415 20 14.9 20H9.1C8.58503 20 8.32754 20 8.19175 19.8937C8.07358 19.8012 8.00323 19.6604 8.00011 19.5104C7.99652 19.338 8.15102 19.132 8.46 18.72L8.76 18.32C8.848 18.2027 8.892 18.144 8.94776 18.1017C8.99715 18.0642 9.05308 18.0362 9.11269 18.0192C9.18 18 9.25333 18 9.4 18H14.6C14.7467 18 14.82 18 14.8873 18.0192C14.9469 18.0362 15.0028 18.0642 15.0522 18.1017C15.108 18.144 15.152 18.2027 15.24 18.32L15.54 18.72Z" fill="#27D08E" style="fill-opacity: 1"/>
</svg>
