<svg width="24" height="25" viewBox="0 0 24 25" fill="none" xmlns="http://www.w3.org/2000/svg">
<path fill-rule="evenodd" clip-rule="evenodd" d="M2.54497 8.15607C2 9.22563 2 10.6258 2 13.426V19.426H17V5.42603H10C7.19974 5.42603 5.79961 5.42603 4.73005 5.97099C3.78924 6.45036 3.02433 7.21526 2.54497 8.15607ZM8.3 8.42603C8.13431 8.42603 8 8.56034 8 8.72603V9.62603C8 9.79171 8.13431 9.92603 8.3 9.92603H13.7C13.8657 9.92603 14 9.79171 14 9.62603V8.72603C14 8.56034 13.8657 8.42603 13.7 8.42603H8.3Z" fill="black" style="fill-opacity: 1"/>
<path d="M18 9.42604L20.8422 8.00492C21.2256 7.81324 21.4173 7.71741 21.5731 7.74043C21.7091 7.76053 21.8309 7.83578 21.9097 7.94849C22 8.07755 22 8.29186 22 8.72047V16.1316C22 16.5602 22 16.7746 21.9097 16.9036C21.8309 17.0163 21.7091 17.0916 21.5731 17.1117C21.4173 17.1347 21.2256 17.0389 20.8422 16.8472L18 15.426V9.42604Z" fill="#373C48" style="fill-opacity: 1"/>
</svg>
